<svg width="34" height="19" viewBox="0 0 34 19" fill="none" xmlns="http://www.w3.org/2000/svg">
<path fill-rule="evenodd" clip-rule="evenodd" d="M12.5 6.25C12.5 3.90279 14.4028 2 16.75 2C19.0972 2 21 3.90279 21 6.25C21 8.59721 19.0972 10.5 16.75 10.5C14.4028 10.5 12.5 8.59721 12.5 6.25Z" fill="white"/>
<path fill-rule="evenodd" clip-rule="evenodd" d="M9 15.75C9 13.6789 10.6789 12 12.75 12H13.0909C13.2754 12 13.4587 12.0292 13.6341 12.0864L14.4996 12.3691C15.9619 12.8465 17.5381 12.8465 19.0004 12.3691L19.8659 12.0864C20.0413 12.0292 20.2246 12 20.4091 12H20.75C22.8211 12 24.5 13.6789 24.5 15.75V16.9383C24.5 17.6915 23.9541 18.3337 23.2107 18.4551C18.9319 19.1537 14.5681 19.1537 10.2893 18.4551C9.54588 18.3337 9 17.6915 9 16.9383V15.75Z" fill="white"/>
<path fill-rule="evenodd" clip-rule="evenodd" d="M21.5 4.25C21.5 1.90279 23.4028 0 25.75 0C28.0972 0 30 1.90279 30 4.25C30 6.59721 28.0972 8.5 25.75 8.5C23.4028 8.5 21.5 6.59721 21.5 4.25Z" fill="white"/>
<path fill-rule="evenodd" clip-rule="evenodd" d="M18 13.75C18 11.6789 19.6789 10 21.75 10H22.0909C22.2754 10 22.4587 10.0292 22.6341 10.0864L23.4996 10.3691C24.9619 10.8465 26.5381 10.8465 28.0004 10.3691L28.8659 10.0864C29.0413 10.0292 29.2246 10 29.4091 10H29.75C31.8211 10 33.5 11.6789 33.5 13.75V14.9383C33.5 15.6915 32.9541 16.3337 32.2107 16.4551C27.9319 17.1537 23.5681 17.1537 19.2893 16.4551C18.5459 16.3337 18 15.6915 18 14.9383V13.75Z" fill="white"/>
<path fill-rule="evenodd" clip-rule="evenodd" d="M3.5 4.25C3.5 1.90279 5.40279 0 7.75 0C10.0972 0 12 1.90279 12 4.25C12 6.59721 10.0972 8.5 7.75 8.5C5.40279 8.5 3.5 6.59721 3.5 4.25Z" fill="white"/>
<path fill-rule="evenodd" clip-rule="evenodd" d="M0 13.75C0 11.6789 1.67893 10 3.75 10H4.09087C4.27536 10 4.45869 10.0292 4.63407 10.0864L5.49959 10.3691C6.96187 10.8465 8.53813 10.8465 10.0004 10.3691L10.8659 10.0864C11.0413 10.0292 11.2246 10 11.4091 10H11.75C13.8211 10 15.5 11.6789 15.5 13.75V14.9383C15.5 15.6915 14.9541 16.3337 14.2107 16.4551C9.9319 17.1537 5.5681 17.1537 1.28927 16.4551C0.545884 16.3337 0 15.6915 0 14.9383V13.75Z" fill="white"/>
</svg>
